<?xml version="1.0" encoding="UTF-8" standalone="no"?>
<!DOCTYPE svg PUBLIC "-//W3C//DTD SVG 1.1//EN" "http://www.w3.org/Graphics/SVG/1.1/DTD/svg11.dtd">
<svg xmlns="http://www.w3.org/2000/svg" xmlns:xlink="http://www.w3.org/1999/xlink" x="0" y="0" version="1.1" width="1170" height="300" viewBox="0, 0, 1170, 300" shape-rendering="geometricPrecision">
	<defs>
		<filter id="maskfilter">
			<feColorMatrix in="SourceGraphic" color-interpolation-filters="sRGB"
				values="0 0 0 0 0
						0 0 0 0 0
						0 0 0 0 0
						0.212656 0.715158 0.072186 0 0"/>
		</filter>

		<filter id="invert">
			<feColorMatrix in="SourceGraphic" type="matrix" color-interpolation-filters="sRGB"
				values="-1 0 0 0 1
						0 -1 0 0 1
						0 0 -1 0 1
						0 0 0 1.01 0"/>
		</filter>

		<g id="all-logo">
			<g id="g3495" transform="matrix(10.059 0 0 -10.059 -350.05 2606.1)">
				<g id="g3497" transform="scale(.1)">
					<path id="path3499" d="m348 1399.2h60.016l156.41-360.08 156.4 360.08h56.985v-429.15h-40.012v378.28h-1.211l-163.69-378.25h-17.59l-166.1 378.25h-1.215v-378.25h-40.008v429.2"/>
					<path id="path3501" d="m986.34 1155-157.62 244.3h47.894l129.72-203.68 132.77 203.68h44.85l-157.61-244.3v-184.95h-40.01v184.9"/>
					<path id="path3503" d="m4115.9 971.27h58.81l-226.31 214.15 213.93 214.16h-56.33l-218.87-214.16zm-852.97 0h40.86v428.31h-40.86zh40.86v428.31h-40.86zh40.86v428.31h-40.86zm-1491.3 0 125.59 428.31h-42.1l-108.53-379.32-101 343.05h-52.01l-102.71-343.05-108.74 379.32h-42.09l125.61-428.31h50.15l103.82 344.83 101.85-344.83h50.16"/>
					<path id="path3505" d="m3823.8 971.27h40.859v428.31h-40.9z"/>
					<path id="path3507" d="m1960.8 1121.3 102.15 234.75 102.16-234.75zm121.35 278.31h-38.4l-191.4-428.33h42.73l49.52 113.73h236.52l49.51-113.73h42.72l-191.31 428.31"/>
					<path id="path3509" d="m1960.8 1121.3 102.15 234.75 102.16-234.75zm121.35 278.31h-38.4l-191.4-428.33h42.73l49.52 113.73h236.52l49.51-113.73h42.72l-191.31 428.31"/>
					<path id="path3511" d="m3068.6 971.27 125.62 428.31h-42.11l-108.53-379.32-99.1 343.05h-55.82l-100.82-343.05-108.72 379.32h-42.11l125.63-428.31h50.14l103.81 344.83 101.87-344.83h50.14"/>
					<path id="path3513" d="m3602.4 996.67c-114.53 0-185.73 82.278-185.73 188.76h.02c0 106.49 71.18 189.71 185.71 189.71 43.96 0 98.43-20.56 129.37-66.56l33.44 24.82c-41.47 55.67-98.44 78.05-162.81 78.05-133.73 0-226.59-95.33-226.59-226.02 0-130.7 92.86-225.07 226.59-225.07 64.37 0 121.34 22.379 162.81 78.061l-33.44 24.81c-30.94-45.96-85.41-66.558-129.37-66.558"/>
					<path id="path3515" d="m2487.8 1170.7c47.66 8.12 107.59 33.46 107.59 112.54 0 112.54-113.75 116.37-148.42 116.37h-122.8v-428.33h40.63v392.04h87.61c86.06 0 102.06-50.45 102.06-80.1 0-29.55-16.63-79.77-102.06-80.04h-46.73v-36.29h41.22l117.46-195.61h46.44l-123.07 199.4"/>
					<path id="path3517" d="m1269.5 2590.7 555.5-977.65 435.86 771.07 438.13-771.07 552.66 977.65h-1982.2"/>
					<path id="path3519" d="m1269.5 2590.7 555.5-977.65 435.86 771.07 438.13-771.07 552.66 977.65h-1982.2"/>
				</g>
			</g>
		</g>
	</defs>

	<g filter="url(#invert)">
		<g filter="url(#maskfilter)">
			<rect x="0" y="0" width="100%" height="100%" fill="white" />
			<g transform="translate(20) scale(0.0487804878)">
				<use x="0" y="0" xlink:href="#all-logo" />
			</g>
		</g>
	</g>
</svg>