<?xml version="1.0" encoding="UTF-8" standalone="no"?>
<svg
   xmlns:dc="http://purl.org/dc/elements/1.1/"
   xmlns:cc="http://creativecommons.org/ns#"
   xmlns:rdf="http://www.w3.org/1999/02/22-rdf-syntax-ns#"
   xmlns:svg="http://www.w3.org/2000/svg"
   xmlns="http://www.w3.org/2000/svg"
   xmlns:sodipodi="http://sodipodi.sourceforge.net/DTD/sodipodi-0.dtd"
   xmlns:inkscape="http://www.inkscape.org/namespaces/inkscape"
   x="0"
   y="0"
   version="1.1"
   width="100%"
   height="100%"
   viewBox="0, 0, 1680, 300"
   id="svg4492"
   inkscape:version="0.91 r13725"
   sodipodi:docname="masthead-logo-bleed-xs.svg">
  <path
     style="fill:#ffffff;fill-opacity:1;stroke:none;stroke-width:3.54330707;stroke-miterlimit:4;stroke-dasharray:none"
     d="M 0 0 L 0 300 L 1680 300 L 1680 0 L 93.535156 0 L 76.267578 30.294922 L 63.351562 6.3847656 L 50.4375 30.294922 L 33.169922 0 L 0 0 z "
     id="rect5187" />
  <metadata
     id="metadata4500">
    <rdf:RDF>
      <cc:Work
         rdf:about="">
        <dc:format>image/svg+xml</dc:format>
        <dc:type
           rdf:resource="http://purl.org/dc/dcmitype/StillImage" />
        <dc:title></dc:title>
      </cc:Work>
    </rdf:RDF>
  </metadata>
  <defs
     id="defs4498">
    <clipPath
       clipPathUnits="userSpaceOnUse"
       id="clipPath16">
      <path
         d="m 0,1288 1199,0 L 1199,0 0,0 0,1288 Z"
         id="path18"
         inkscape:connector-curvature="0" />
    </clipPath>
    <clipPath
       clipPathUnits="userSpaceOnUse"
       id="clipPath36">
      <path
         d="m 457,600.961 283.465,0 0,85.039 -283.465,0 0,-85.039 z"
         id="path38"
         inkscape:connector-curvature="0" />
    </clipPath>
    <clipPath
       clipPathUnits="userSpaceOnUse"
       id="clipPath52">
      <path
         d="m 0,1288 1199,0 L 1199,0 0,0 0,1288 Z"
         id="path54"
         inkscape:connector-curvature="0" />
    </clipPath>
    <clipPath
       clipPathUnits="userSpaceOnUse"
       id="clipPath64">
      <path
         d="m 457,600.961 283.465,0 0,85.039 -283.465,0 0,-85.039 z"
         id="path66"
         inkscape:connector-curvature="0" />
    </clipPath>
  </defs>
  <sodipodi:namedview
     pagecolor="#ffffff"
     bordercolor="#666666"
     borderopacity="1"
     objecttolerance="10"
     gridtolerance="10"
     guidetolerance="10"
     inkscape:pageopacity="0"
     inkscape:pageshadow="2"
     inkscape:window-width="1735"
     inkscape:window-height="727"
     id="namedview4496"
     showgrid="false"
     inkscape:zoom="0.84249442"
     inkscape:cx="471.43108"
     inkscape:cy="263.03721"
     inkscape:window-x="49"
     inkscape:window-y="24"
     inkscape:window-maximized="0"
     inkscape:current-layer="svg4492" />
  <!-- Put the logo in -->
  <g
     id="g4206"
     transform="matrix(0.25026334,0,0,0.25026334,45.281613,49.354663)">
    <g
       id="g12"
       transform="matrix(1.25,0,0,-1.25,-676.78974,794.21331)">
      <g
         clip-path="url(#clipPath16)"
         id="g14">
        <g
           transform="translate(730.6348,618.8965)"
           id="g20">
          <path
             inkscape:connector-curvature="0"
             id="path22"
             style="fill:#6d6f71;fill-opacity:1;fill-rule:nonzero;stroke:none"
             d="m 0,0 -1.425,0 0,-14.01 1.425,0 0,7.461 0.021,0 7.004,-7.461 2.097,0 -7.46,7.658 L 8.728,0 6.688,0 0.021,-6.292 0,-6.292 0,0 Z m -4.887,-11.021 c -0.488,-0.726 -1.094,-1.253 -1.821,-1.583 -0.725,-0.331 -1.49,-0.496 -2.295,-0.496 -0.896,0 -1.705,0.164 -2.424,0.494 -0.719,0.329 -1.329,0.772 -1.831,1.332 -0.501,0.558 -0.887,1.206 -1.157,1.942 -0.271,0.736 -0.405,1.512 -0.405,2.328 0,0.815 0.132,1.59 0.395,2.326 0.265,0.738 0.647,1.385 1.149,1.944 0.501,0.558 1.11,1.002 1.83,1.331 0.718,0.329 1.533,0.493 2.443,0.493 0.448,0 0.867,-0.053 1.256,-0.158 0.39,-0.106 0.749,-0.245 1.079,-0.415 0.329,-0.172 0.616,-0.371 0.861,-0.594 0.244,-0.225 0.438,-0.448 0.583,-0.673 l 1.189,0.871 c -0.238,0.343 -0.535,0.65 -0.892,0.923 -0.355,0.271 -0.752,0.505 -1.186,0.699 -0.436,0.194 -0.901,0.346 -1.396,0.453 -0.495,0.107 -0.999,0.16 -1.513,0.16 -1.042,0 -2.008,-0.184 -2.9,-0.553 -0.89,-0.369 -1.662,-0.881 -2.314,-1.533 -0.654,-0.654 -1.165,-1.429 -1.535,-2.326 -0.369,-0.897 -0.553,-1.88 -0.553,-2.948 0,-1.069 0.18,-2.052 0.544,-2.949 0.362,-0.897 0.867,-1.672 1.513,-2.325 0.646,-0.653 1.418,-1.164 2.316,-1.534 0.896,-0.369 1.872,-0.553 2.929,-0.553 0.632,0 1.216,0.07 1.751,0.211 0.535,0.14 1.021,0.331 1.464,0.572 0.442,0.241 0.831,0.52 1.167,0.838 0.336,0.317 0.623,0.654 0.862,1.011 l -1.109,0.712 z M -19.193,0 l -1.426,0 0,-14.01 1.426,0 0,14.01 z m -20.639,0 -1.504,0 4.135,-14.01 1.663,0 3.522,12.031 0.039,0 3.523,-12.031 1.662,0 4.137,14.01 -1.505,0 -3.424,-12.051 -0.039,0 -3.503,12.051 -1.7,0 -3.504,-12.051 -0.039,0 L -39.832,0 Z m -10.251,-1.227 2.533,0 c 0.529,0 1.009,-0.045 1.446,-0.138 0.434,-0.092 0.803,-0.238 1.107,-0.435 0.304,-0.198 0.541,-0.455 0.712,-0.772 0.173,-0.317 0.259,-0.705 0.259,-1.167 0,-0.831 -0.312,-1.454 -0.932,-1.87 -0.62,-0.416 -1.503,-0.623 -2.65,-0.623 l -2.475,0 0,5.005 z m 0,-6.233 2.375,0 3.878,-6.55 1.742,0 -4.096,6.669 c 0.514,0.053 0.99,0.171 1.424,0.357 0.437,0.184 0.813,0.431 1.128,0.742 0.318,0.309 0.568,0.676 0.752,1.097 0.186,0.422 0.277,0.891 0.277,1.406 0,0.685 -0.118,1.266 -0.356,1.741 -0.236,0.475 -0.57,0.86 -0.999,1.157 -0.429,0.297 -0.937,0.512 -1.523,0.644 C -46.068,-0.065 -46.706,0 -47.391,0 l -4.116,0 0,-14.01 1.424,0 0,6.55 z m -10.131,5.878 3.087,-7.44 -6.174,0 3.087,7.44 z m -3.621,-8.747 7.242,0 1.544,-3.681 1.583,0 -6.015,14.01 -1.385,0 -6.056,-14.01 1.564,0 1.523,3.681 z M -84.235,0 l -1.504,0 4.135,-14.01 1.663,0 3.521,12.031 0.039,0 3.524,-12.031 1.662,0 4.135,14.01 -1.503,0 -3.424,-12.051 -0.039,0 -3.503,12.051 -1.701,0 -3.503,-12.051 -0.04,0 L -84.235,0 Z m -14.022,-7.381 6.53,0 0,1.267 -6.53,0 0,4.848 7.026,0 0,1.266 -8.45,0 0,-14.01 1.424,0 0,6.629 z m -6.192,-1.965 c -0.265,-0.737 -0.648,-1.383 -1.149,-1.935 -0.501,-0.554 -1.111,-0.995 -1.83,-1.324 -0.718,-0.33 -1.527,-0.495 -2.424,-0.495 -0.898,0 -1.705,0.165 -2.423,0.495 -0.719,0.329 -1.33,0.77 -1.831,1.324 -0.501,0.552 -0.884,1.198 -1.148,1.935 -0.264,0.738 -0.395,1.515 -0.395,2.331 0,0.817 0.131,1.594 0.395,2.331 0.264,0.739 0.647,1.387 1.148,1.947 0.501,0.559 1.112,1.004 1.831,1.333 0.718,0.33 1.525,0.494 2.423,0.494 0.897,0 1.706,-0.164 2.424,-0.494 0.719,-0.329 1.329,-0.774 1.83,-1.333 0.501,-0.56 0.884,-1.208 1.149,-1.947 0.263,-0.737 0.395,-1.514 0.395,-2.331 0,-0.816 -0.132,-1.593 -0.395,-2.331 m 1.345,5.29 c -0.37,0.897 -0.88,1.672 -1.534,2.326 -0.653,0.652 -1.425,1.164 -2.315,1.533 -0.891,0.369 -1.857,0.553 -2.899,0.553 -1.043,0 -2.008,-0.184 -2.899,-0.553 -0.891,-0.369 -1.662,-0.881 -2.314,-1.533 -0.654,-0.654 -1.165,-1.429 -1.535,-2.326 -0.369,-0.897 -0.553,-1.88 -0.553,-2.948 0,-1.069 0.184,-2.052 0.553,-2.949 0.37,-0.897 0.881,-1.672 1.535,-2.325 0.652,-0.653 1.423,-1.164 2.314,-1.534 0.891,-0.369 1.856,-0.553 2.899,-0.553 1.042,0 2.008,0.184 2.899,0.553 0.89,0.37 1.662,0.881 2.315,1.534 0.654,0.653 1.164,1.428 1.534,2.325 0.37,0.897 0.554,1.88 0.554,2.949 0,1.068 -0.184,2.051 -0.554,2.948 m -24.568,-3.919 5.244,7.975 -1.662,0 -4.255,-6.787 -4.214,6.787 -1.781,0 5.243,-7.975 0,-6.035 1.425,0 0,6.035 z m -11.259,6.709 4.69,0 0,1.266 -10.805,0 0,-1.266 4.691,0 0,-12.744 1.424,0 0,12.744 z m -8.112,1.266 -1.425,0 0,-14.01 1.425,0 0,14.01 z m -4.572,-1.345 c -0.343,0.461 -0.851,0.861 -1.524,1.197 -0.673,0.336 -1.484,0.504 -2.434,0.504 -0.514,0 -1.034,-0.072 -1.563,-0.217 -0.528,-0.145 -1.009,-0.376 -1.444,-0.693 -0.436,-0.316 -0.789,-0.718 -1.059,-1.207 -0.271,-0.488 -0.406,-1.068 -0.406,-1.741 0,-0.633 0.109,-1.168 0.327,-1.602 0.218,-0.436 0.504,-0.802 0.862,-1.099 0.356,-0.297 0.757,-0.537 1.207,-0.723 0.447,-0.184 0.902,-0.349 1.364,-0.494 0.448,-0.145 0.877,-0.29 1.286,-0.435 0.409,-0.146 0.772,-0.327 1.089,-0.544 0.316,-0.218 0.57,-0.489 0.762,-0.812 0.19,-0.323 0.286,-0.728 0.286,-1.217 0,-0.449 -0.096,-0.841 -0.286,-1.177 -0.192,-0.336 -0.435,-0.621 -0.733,-0.851 -0.297,-0.232 -0.63,-0.402 -0.999,-0.515 -0.37,-0.112 -0.732,-0.168 -1.088,-0.168 -0.739,0 -1.382,0.168 -1.929,0.505 -0.548,0.336 -0.974,0.755 -1.277,1.256 l -1.226,-0.91 c 0.251,-0.343 0.541,-0.647 0.87,-0.91 0.329,-0.264 0.686,-0.482 1.068,-0.654 0.383,-0.17 0.785,-0.299 1.207,-0.385 0.422,-0.085 0.844,-0.128 1.267,-0.128 0.554,0 1.105,0.079 1.653,0.237 0.546,0.158 1.033,0.402 1.46,0.732 0.425,0.33 0.771,0.749 1.038,1.256 0.266,0.508 0.4,1.112 0.4,1.811 0,0.699 -0.125,1.276 -0.375,1.731 -0.25,0.455 -0.572,0.831 -0.967,1.128 -0.395,0.297 -0.839,0.538 -1.332,0.723 -0.493,0.184 -0.983,0.356 -1.47,0.515 -0.395,0.131 -0.773,0.263 -1.135,0.395 -0.361,0.132 -0.683,0.3 -0.967,0.505 -0.283,0.204 -0.509,0.451 -0.681,0.742 -0.171,0.289 -0.256,0.659 -0.256,1.108 0,0.448 0.089,0.837 0.267,1.168 0.178,0.329 0.413,0.603 0.704,0.821 0.289,0.218 0.612,0.379 0.968,0.484 0.356,0.106 0.706,0.158 1.049,0.158 0.674,0 1.247,-0.128 1.722,-0.385 0.474,-0.257 0.863,-0.597 1.167,-1.019 l 1.128,0.91 z m -18.244,0.118 2.532,0 c 0.528,0 1.01,-0.045 1.445,-0.138 0.435,-0.092 0.804,-0.238 1.109,-0.435 0.302,-0.198 0.541,-0.455 0.711,-0.772 0.172,-0.317 0.258,-0.705 0.258,-1.167 0,-0.831 -0.311,-1.454 -0.929,-1.87 -0.621,-0.416 -1.505,-0.623 -2.653,-0.623 l -2.473,0 0,5.005 z m 0,-6.233 2.374,0 3.879,-6.55 1.741,0 -4.095,6.669 c 0.513,0.053 0.988,0.171 1.423,0.357 0.436,0.184 0.812,0.431 1.128,0.742 0.317,0.309 0.567,0.676 0.752,1.097 0.185,0.422 0.277,0.891 0.277,1.406 0,0.685 -0.118,1.266 -0.356,1.741 -0.237,0.475 -0.571,0.86 -0.999,1.157 -0.429,0.297 -0.937,0.512 -1.524,0.644 -0.587,0.132 -1.223,0.197 -1.908,0.197 l -4.117,0 0,-14.01 1.425,0 0,6.55 z m -11.616,0.119 6.787,0 0,1.267 -6.787,0 0,4.808 7.263,0 0,1.266 -8.687,0 0,-14.01 8.924,0 0,1.267 -7.5,0 0,5.402 z m -13.91,7.341 -1.544,0 5.343,-14.01 1.504,0 5.362,14.01 -1.523,0 -4.551,-12.169 -0.04,0 L -195.385,0 Z m -3.364,0 -1.425,0 0,-14.01 1.425,0 0,14.01 z m -14.663,0 -1.781,0 0,-14.01 1.425,0 0,12.051 0.039,0 8.153,-12.051 1.781,0 0,14.01 -1.425,0 0,-11.932 -0.039,0 L -213.412,0 Z m -7.984,-13.821 c 0.679,0.362 1.217,0.821 1.613,1.375 0.395,0.553 0.669,1.158 0.821,1.81 0.151,0.654 0.227,1.27 0.227,1.851 l 0,8.785 -1.425,0 0,-8.627 c 0,-0.567 -0.066,-1.118 -0.197,-1.652 -0.132,-0.534 -0.347,-1.009 -0.643,-1.425 -0.297,-0.415 -0.69,-0.752 -1.178,-1.009 -0.488,-0.258 -1.088,-0.387 -1.801,-0.387 -0.712,0 -1.313,0.129 -1.8,0.387 -0.489,0.257 -0.881,0.594 -1.178,1.009 -0.296,0.416 -0.511,0.891 -0.643,1.425 -0.132,0.534 -0.198,1.085 -0.198,1.652 l 0,8.627 -1.424,0 0,-8.785 c 0,-0.581 0.076,-1.197 0.227,-1.851 0.152,-0.652 0.426,-1.257 0.822,-1.81 0.395,-0.554 0.929,-1.013 1.602,-1.375 0.673,-0.364 1.537,-0.544 2.592,-0.544 1.042,0 1.903,0.18 2.583,0.544 m -22.678,6.48 6.788,0 0,1.267 -6.788,0 0,4.808 7.262,0 0,1.266 -8.686,0 0,-14.01 8.924,0 0,1.267 -7.5,0 0,5.402 z m -15.533,-6.669 1.425,0 0,6.629 7.638,0 0,-6.629 1.425,0 0,14.01 -1.425,0 0,-6.074 -7.638,0 0,6.074 -1.425,0 0,-14.01 z m -6.688,12.744 4.69,0 0,1.266 -10.805,0 0,-1.266 4.69,0 0,-12.744 1.425,0 0,12.744 z" />
        </g>
        <g
           transform="translate(545.3779,643.6841)"
           id="g24">
          <path
             inkscape:connector-curvature="0"
             id="path26"
             style="fill:#6d6f71;fill-opacity:1;fill-rule:nonzero;stroke:none"
             d="m 0,0 9.486,27.462 c 0.387,0.371 0.547,0.544 0.868,0.812 3.772,3.4 10.812,4.803 15.547,5.136 l 13.427,-33.875 12.682,33.807 12.359,0 L 46.312,-10 l -14.929,0 -12.441,32.339 -0.321,0 L 7.626,-10 l -14.85,0 -19.422,43.342 13.156,0 L 0,0 Z" />
        </g>
        <g
           transform="translate(677.5684,677.0259)"
           id="g28">
          <path
             inkscape:connector-curvature="0"
             id="path30"
             style="fill:#6d6f71;fill-opacity:1;fill-rule:nonzero;stroke:none"
             d="m 0,0 1.124,0 0,-43.342 -10.914,0 0,33.806 -15.331,-33.806 -12.841,0 -15.812,34.006 0,-34.006 -11.078,0 0,43.342 0.963,0 c 3.292,0 14.287,-0.534 19.263,-5.068 l 12.762,-28.606 13.164,29.14 C -13.482,-0.467 -3.209,0 0,0" />
        </g>
      </g>
    </g>
    <g
       id="g32"
       transform="matrix(1.25,0,0,-1.25,-676.78974,794.21331)">
      <g
         clip-path="url(#clipPath36)"
         id="g34">
        <g
           transform="translate(738.1367,659.2222)"
           id="g40">
          <path
             inkscape:connector-curvature="0"
             id="path42"
             style="fill:#6d6f71;fill-opacity:1;fill-rule:nonzero;stroke:none"
             d="m 0,0 0,-25.539 -27.289,0 c -3.852,0 -6.902,0.2 -9.149,0.666 -4.896,0.868 -8.829,2.667 -11.796,5.335 -3.935,3.535 -5.861,8.468 -5.861,14.87 0,6.734 1.687,11.869 5.217,15.47 4.413,4.668 11.959,7.002 22.474,7.002 l 26.404,0 c -0.561,-4.068 -3.69,-7.202 -3.69,-7.202 l -22.714,-0.066 c -4.899,0 -8.429,-1.202 -10.674,-3.601 -2.248,-2.4 -3.372,-5.868 -3.372,-10.403 0,-4.602 0.963,-8.002 2.888,-10.268 2.248,-2.734 5.941,-4.069 11.158,-4.069 l 13.966,0 0,10.203 -11.799,-0.133 c 0,0 -3.533,3.067 -4.414,7.735 L 0,0 Z" />
        </g>
        <g
           transform="translate(469.9741,668.0879)"
           id="g44">
          <path
             inkscape:connector-curvature="0"
             id="path46"
             style="fill:#fcb034;fill-opacity:1;fill-rule:nonzero;stroke:none"
             d="m 0,0 c 0,0 -18.17,-20.187 -10.282,-30.205 0,0 6.549,-8.871 23.666,4.241 0,0 -17.615,14.017 -13.384,25.964" />
        </g>
      </g>
    </g>
    <g
       id="g48"
       transform="matrix(1.25,0,0,-1.25,-676.78974,794.21331)">
      <g
         clip-path="url(#clipPath52)"
         id="g50">
        <g
           transform="translate(459.2871,634.4023)"
           id="g56">
          <path
             inkscape:connector-curvature="0"
             id="path58"
             style="fill:#ee3224;fill-opacity:1;fill-rule:nonzero;stroke:none"
             d="m 0,0 c 0,0 5.161,-5.898 15.391,-1.505 10.231,4.395 37,23.186 33.749,34.124 0,0 10.754,-16.304 -1.724,-29.577 0,0 -5.316,-5.388 -14.278,-6.377 C 20.336,-4.748 2.776,-6.441 0,0" />
        </g>
      </g>
    </g>
    <g
       id="g60"
       transform="matrix(1.25,0,0,-1.25,-676.78974,794.21331)">
      <g
         clip-path="url(#clipPath64)"
         id="g62">
        <g
           transform="translate(494.5991,682.0254)"
           id="g68">
          <path
             inkscape:connector-curvature="0"
             id="path70"
             style="fill:#009ddc;fill-opacity:1;fill-rule:nonzero;stroke:none"
             d="m 0,0 c 0,0 12.694,1.992 16.925,-2.862 0,0 3.857,-4.605 0,-11.325 0,0 -2.241,10.205 -16.925,14.187" />
        </g>
        <g
           transform="translate(471.9038,662.708)"
           id="g72">
          <path
             inkscape:connector-curvature="0"
             id="path74"
             style="fill:#c1d82f;fill-opacity:1;fill-rule:nonzero;stroke:none"
             d="M 0,0 C 0,0 2.446,10.013 23.241,17.399 23.241,17.399 0.546,23.773 0,0" />
        </g>
      </g>
    </g>
  </g>
</svg>
